<svg width="20" height="22" viewBox="0 0 20 22" fill="none" xmlns="http://www.w3.org/2000/svg">
<path d="M18.9098 4.2637L10.9019 0.214144C10.3271 -0.0778916 9.65312 -0.0778916 9.09812 0.214144L1.07037 4.2637C0.416254 4.59467 0 5.25662 0 5.99644V16.0035C0 16.7239 0.416254 17.4053 1.07037 17.7363L9.07829 21.7858C9.65312 22.0779 10.3271 22.0779 10.8821 21.7858L18.89 17.7363C19.5441 17.4053 19.9604 16.7433 19.9604 16.0035V5.99644C20 5.25662 19.5837 4.59467 18.9098 4.2637ZM9.99009 1.07078L18.0971 5.15927L9.99009 9.24777L1.88305 5.15927L9.99009 1.07078ZM1.1893 16.4902V6.11326L9.39544 10.2602V20.6371L1.1893 16.4902ZM10.5847 20.6177V10.2602L18.7909 6.11326V16.4902L10.5847 20.6177Z" fill="white"/>
</svg>
