<?xml version="1.0" encoding="UTF-8" standalone="no"?>
<!DOCTYPE svg PUBLIC "-//W3C//DTD SVG 20010904//EN"
              "http://www.w3.org/TR/2001/REC-SVG-20010904/DTD/svg10.dtd">

<svg xmlns="http://www.w3.org/2000/svg"
     width="0.736667in" height="1.33667in"
     viewBox="0 0 221 401">
  <path id="Selection"
        width="20" height="20" viewBox="0 0 20 20" fill="white" stroke="white" stroke-width="10"
        d="M 80.00,1.00
           C 80.00,1.00 80.00,36.00 80.00,36.00
             79.99,38.65 80.33,42.38 78.40,44.44
             76.73,46.23 67.01,48.62 64.00,49.69
             55.70,52.64 46.23,57.20 39.00,62.20
             14.03,79.51 5.51,98.74 3.32,128.00
             3.05,131.66 4.56,145.08 5.42,149.00
             6.79,155.20 8.52,161.30 11.37,167.00
             29.83,203.93 70.49,215.28 107.00,226.28
             130.95,233.49 164.57,242.17 166.82,272.00
             167.95,287.00 155.58,296.40 143.00,301.19
             118.72,310.42 90.32,307.61 67.00,296.97
             61.02,294.24 54.18,290.03 49.00,285.99
             46.95,284.38 42.52,280.16 40.00,280.19
             36.79,280.23 30.37,287.64 28.00,290.00
             28.00,290.00 1.00,315.00 1.00,315.00
             3.60,320.38 10.25,325.43 15.00,329.11
             27.53,338.81 41.09,346.00 56.00,351.31
             56.00,351.31 72.00,356.13 72.00,356.13
             74.33,356.73 77.54,357.30 78.98,359.43
             80.22,361.26 80.00,364.82 80.00,367.00
             80.00,367.00 80.00,401.00 80.00,401.00
             80.00,401.00 134.00,401.00 134.00,401.00
             134.00,401.00 134.00,368.00 134.00,368.00
             134.01,365.46 133.65,361.65 135.60,359.74
             137.44,357.93 146.89,356.66 150.00,355.85
             159.56,353.33 170.43,349.48 179.00,344.57
             206.10,329.07 219.76,305.92 220.96,275.00
             221.16,269.96 219.52,257.09 218.35,252.00
             216.49,243.90 214.74,238.44 210.89,231.00
             192.12,194.67 149.62,181.68 113.00,171.14
             90.92,164.79 49.45,153.08 58.78,122.00
             61.77,112.07 72.71,104.59 82.00,101.06
             102.13,93.43 127.47,93.90 148.00,99.71
             154.71,101.61 158.59,102.75 165.00,105.78
             167.23,106.84 172.67,109.97 174.91,109.77
             178.24,109.46 181.91,102.68 183.66,100.00
             188.16,93.10 203.03,71.20 205.00,65.00
             187.34,56.50 183.06,53.08 163.00,47.43
             163.00,47.43 137.15,42.26 137.15,42.26
             133.42,40.56 134.01,36.43 134.00,33.00
             134.00,33.00 134.00,1.00 134.00,1.00
             134.00,1.00 80.00,1.00 80.00,1.00 Z" />
</svg>
