<?xml version="1.0" encoding="UTF-8" standalone="no"?>
<!DOCTYPE svg PUBLIC "-//W3C//DTD SVG 20010904//EN"
              "http://www.w3.org/TR/2001/REC-SVG-20010904/DTD/svg10.dtd">

<svg xmlns="http://www.w3.org/2000/svg"
     width="180.6mm" height="180.6mm"
     viewBox="0 0 512 512">
  <path id="Selection"
        width="20" height="20" viewBox="0 0 20 20" fill="white" stroke="white" stroke-width="10"
        d="M 38.00,474.00
           C 38.00,474.00 38.00,26.00 38.00,26.00
             37.98,16.05 34.64,6.11 23.00,5.11
             11.81,4.15 5.14,12.45 5.00,23.00
             5.00,23.00 5.00,116.00 5.00,116.00
             5.00,116.00 5.00,487.00 5.00,487.00
             5.02,501.21 10.71,506.98 25.00,507.00
             25.00,507.00 128.00,507.00 128.00,507.00
             128.00,507.00 487.00,507.00 487.00,507.00
             492.45,506.99 496.39,507.09 500.91,503.44
             509.97,496.13 508.68,482.84 498.98,476.66
             494.58,473.86 490.96,474.01 486.00,474.00
             486.00,474.00 341.00,474.00 341.00,474.00
             341.00,474.00 217.00,474.00 217.00,474.00
             217.00,474.00 38.00,474.00 38.00,474.00 Z
           M 373.00,132.00
           C 362.54,153.44 331.42,196.56 316.00,216.00
             271.82,271.72 220.64,321.78 163.00,363.58
             138.64,381.24 113.88,397.09 88.00,412.40
             78.24,418.17 64.27,421.93 65.11,436.00
             65.61,444.52 73.42,451.75 82.00,451.65
             85.93,451.60 91.48,448.97 95.00,447.24
             117.84,436.02 155.22,412.00 176.00,396.85
             245.26,346.35 300.83,292.62 352.37,224.00
             352.37,224.00 387.81,172.00 387.81,172.00
             391.79,165.58 399.89,153.67 402.00,147.00
             402.00,147.00 419.00,155.75 419.00,155.75
             422.31,157.41 427.54,160.26 431.00,161.04
             440.49,163.17 448.06,155.76 450.10,147.00
             451.25,142.06 449.68,132.36 449.04,127.00
             449.04,127.00 449.04,119.00 449.04,119.00
             449.04,119.00 447.09,99.00 447.09,99.00
             447.09,99.00 444.28,64.00 444.28,64.00
             443.39,57.17 443.20,52.24 436.00,48.97
             432.47,47.37 427.80,46.65 424.00,47.53
             418.19,48.88 401.09,60.52 395.00,64.32
             395.00,64.32 364.00,83.19 364.00,83.19
             359.24,86.10 350.89,90.69 347.11,94.30
             340.48,100.62 340.05,112.42 347.11,118.61
             349.44,120.66 355.01,123.30 358.00,124.92
             363.03,127.64 367.55,130.17 373.00,132.00 Z
           M 414.00,92.00
           C 414.00,92.00 414.00,93.00 414.00,93.00
             414.00,93.00 413.00,92.00 413.00,92.00
             413.00,92.00 414.00,92.00 414.00,92.00 Z
           M 411.00,94.00
           C 411.00,94.00 411.00,95.00 411.00,95.00
             411.00,95.00 410.00,94.00 410.00,94.00
             410.00,94.00 411.00,94.00 411.00,94.00 Z
           M 416.00,94.00
           C 416.00,94.00 416.00,104.00 416.00,104.00
             414.65,100.59 414.65,97.41 416.00,94.00 Z
           M 409.00,95.00
           C 409.00,95.00 409.00,96.00 409.00,96.00
             409.00,96.00 408.00,95.00 408.00,95.00
             408.00,95.00 409.00,95.00 409.00,95.00 Z
           M 406.00,97.00
           C 406.00,97.00 406.00,98.00 406.00,98.00
             406.00,98.00 405.00,97.00 405.00,97.00
             405.00,97.00 406.00,97.00 406.00,97.00 Z
           M 404.00,98.00
           C 404.00,98.00 404.00,99.00 404.00,99.00
             404.00,99.00 403.00,98.00 403.00,98.00
             403.00,98.00 404.00,98.00 404.00,98.00 Z
           M 399.00,101.00
           C 399.00,101.00 399.00,102.00 399.00,102.00
             399.00,102.00 398.00,101.00 398.00,101.00
             398.00,101.00 399.00,101.00 399.00,101.00 Z
           M 397.00,102.00
           C 397.00,102.00 397.00,103.00 397.00,103.00
             397.00,103.00 396.00,102.00 396.00,102.00
             396.00,102.00 397.00,102.00 397.00,102.00 Z
           M 394.00,104.00
           C 394.00,104.00 394.00,105.00 394.00,105.00
             394.00,105.00 393.00,104.00 393.00,104.00
             393.00,104.00 394.00,104.00 394.00,104.00 Z
           M 392.00,105.00
           C 392.00,105.00 392.00,106.00 392.00,106.00
             392.00,106.00 391.00,105.00 391.00,105.00
             391.00,105.00 392.00,105.00 392.00,105.00 Z
           M 394.00,106.00
           C 394.00,106.00 394.00,107.00 394.00,107.00
             394.00,107.00 393.00,106.00 393.00,106.00
             393.00,106.00 394.00,106.00 394.00,106.00 Z
           M 396.00,107.00
           C 396.00,107.00 396.00,108.00 396.00,108.00
             396.00,108.00 395.00,107.00 395.00,107.00
             395.00,107.00 396.00,107.00 396.00,107.00 Z
           M 417.00,107.00
           C 417.00,107.00 417.00,116.00 417.00,116.00
             415.69,112.70 415.69,110.30 417.00,107.00 Z
           M 398.00,108.00
           C 398.00,108.00 398.00,109.00 398.00,109.00
             398.00,109.00 397.00,108.00 397.00,108.00
             397.00,108.00 398.00,108.00 398.00,108.00 Z
           M 400.00,109.00
           C 400.00,109.00 400.00,110.00 400.00,110.00
             400.00,110.00 399.00,109.00 399.00,109.00
             399.00,109.00 400.00,109.00 400.00,109.00 Z
           M 402.00,110.00
           C 402.00,110.00 402.00,111.00 402.00,111.00
             402.00,111.00 401.00,110.00 401.00,110.00
             401.00,110.00 402.00,110.00 402.00,110.00 Z
           M 404.00,111.00
           C 404.00,111.00 404.00,112.00 404.00,112.00
             404.00,112.00 403.00,111.00 403.00,111.00
             403.00,111.00 404.00,111.00 404.00,111.00 Z
           M 406.00,112.00
           C 406.00,112.00 406.00,113.00 406.00,113.00
             406.00,113.00 405.00,112.00 405.00,112.00
             405.00,112.00 406.00,112.00 406.00,112.00 Z
           M 408.00,113.00
           C 408.00,113.00 408.00,114.00 408.00,114.00
             408.00,114.00 407.00,113.00 407.00,113.00
             407.00,113.00 408.00,113.00 408.00,113.00 Z
           M 417.00,118.00
           C 417.00,118.00 417.00,119.00 417.00,119.00
             417.00,119.00 416.00,118.00 416.00,118.00
             416.00,118.00 417.00,118.00 417.00,118.00 Z" />
</svg>
