<svg width="23" height="23" viewBox="0 0 23 23" fill="none" xmlns="http://www.w3.org/2000/svg">
<path d="M11.8128 0.740035C11.81 1.10959 11.5253 1.39006 11.1558 1.38727C5.80809 1.34695 1.4276 5.66186 1.38727 11.0095C1.34695 16.3572 5.66186 20.7377 11.0095 20.778C16.3572 20.8184 20.7377 16.5034 20.778 11.1558C20.7915 9.3732 20.3048 7.60861 19.4031 6.10177C19.2942 6.12269 19.1853 6.14361 19.0766 6.14279C18.2506 6.13656 17.5818 5.45758 17.588 4.63152C17.5942 3.80546 18.2732 3.13664 19.0993 3.14287C19.9253 3.1491 20.5941 3.82808 20.5879 4.65414C20.5861 4.89327 20.5193 5.11016 20.4308 5.30515C21.5264 7.05259 22.0977 9.12218 22.0822 11.1873C22.0366 17.2306 17.0647 22.1281 10.9997 22.0823C4.93466 22.0366 0.0372266 17.0647 0.0829624 10.9997C0.128698 4.93466 5.10055 0.0372257 11.1656 0.0829615C11.5134 0.0855843 11.8156 0.370479 11.8128 0.740035Z" fill="white"/>
<path d="M6.75669 11.05C6.77471 8.66085 8.72611 6.73866 11.1153 6.75668C13.5044 6.77469 15.4266 8.7261 15.4086 11.1153C15.3906 13.5044 13.4392 15.4266 11.05 15.4086C8.66087 15.3906 6.73868 13.4392 6.75669 11.05Z" fill="white"/>
</svg>
