<svg width="20" height="20" viewBox="0 0 20 20" fill="none" xmlns="http://www.w3.org/2000/svg">
<g clip-path="url(#clip0)">
<path d="M-1.0213e-05 4.52962L-9.60782e-06 18.374C-9.56822e-06 19.2799 0.715925 20 1.61662 20L15.3811 20C16.2817 20 16.9977 19.2799 16.9977 18.374L16.9977 4.52962C16.9977 3.62369 16.2817 2.9036 15.3811 2.9036L1.61662 2.9036C0.715924 2.9036 -1.02526e-05 3.62369 -1.0213e-05 4.52962ZM15.612 18.1417C15.612 18.3972 15.4041 18.6063 15.1501 18.6063L1.84757 18.6063C1.59352 18.6063 1.38567 18.3972 1.38567 18.1417L1.38567 4.76191C1.38567 4.50639 1.59352 4.29733 1.84756 4.29733L15.1501 4.29733C15.4041 4.29733 15.612 4.50639 15.612 4.76191L15.612 18.1417Z" fill="white"/>
<path d="M4.06467 0.836225C4.13395 1.16143 4.43418 1.39372 4.7806 1.39372L18.1524 1.39372C18.4065 1.39372 18.6143 1.60277 18.6143 1.85829L18.6143 15.3078C18.6143 15.6562 18.8453 15.9582 19.1686 16.0279C19.6074 16.1208 20 15.7723 20 15.3542L20 1.7886C20 0.812995 19.2148 0.0232163 18.2448 0.0232163L4.75751 0.0232169C4.31871 -1.07586e-05 3.99538 0.394878 4.06467 0.836225Z" fill="white"/>
</g>
<defs>
<clipPath id="clip0">
<rect width="20" height="20" fill="white" transform="matrix(-4.37114e-08 -1 -1 4.37114e-08 20 20)"/>
</clipPath>
</defs>
</svg>
