<?xml version="1.0" encoding="iso-8859-1"?>
<!-- Generator: Adobe Illustrator 19.0.0, SVG Export Plug-In . SVG Version: 6.00 Build 0)  -->
<svg version="1.1" id="Capa_1" xmlns="http://www.w3.org/2000/svg" xmlns:xlink="http://www.w3.org/1999/xlink" x="0px" y="0px"
	 viewBox="0 0 512 512" style="enable-background:new 0 0 512 512;" xml:space="preserve">
<g>
	<g>
		<path
      fill="white" stroke="white"
      d="M336,16c-85.312,0-176,28.032-176,80v64c0,8.832,7.168,16,16,16c8.832,0,16-7.168,16-16v-16.672
			C225.952,164.736,282.016,176,336,176s110.048-11.264,144-32.672V160c0,15.648-39.36,40.608-113.344,46.784
			c-8.768,0.704-15.328,8.48-14.592,17.28c0.672,8.352,7.68,14.656,15.904,14.656c0.48,0,0.896-0.032,1.376-0.064
			c41.664-3.488,83.168-14.272,110.656-31.776V224c0,13.664-28.992,33.312-82.784,42.816c-8.672,1.536-14.496,9.856-12.96,18.528
			c1.376,7.744,8.128,13.216,15.712,13.216c0.928,0,1.888-0.064,2.816-0.256c32.544-5.728,58.592-15.104,77.216-27.008V288
			c0,13.664-28.992,33.312-82.784,42.816c-8.672,1.536-14.496,9.856-12.96,18.528c1.376,7.744,8.128,13.216,15.712,13.216
			c0.928,0,1.888-0.064,2.816-0.256c32.544-5.728,58.592-15.136,77.216-27.008V352c0,13.664-28.992,33.312-82.784,42.816
			c-8.672,1.536-14.496,9.856-12.96,18.528c1.376,7.744,8.128,13.216,15.712,13.216c0.928,0,1.888-0.064,2.816-0.256
			c32.544-5.728,58.592-15.136,77.216-27.008V416c0,15.648-39.36,40.608-113.344,46.784c-8.768,0.704-15.328,8.48-14.592,17.28
			c0.672,8.352,7.68,14.656,15.904,14.656c0.48,0,0.896-0.032,1.376-0.064C440.352,488.704,512,462.112,512,416V96
			C512,44.032,421.312,16,336,16z M336,144c-87.904,0-144-28.448-144-48s56.096-48,144-48s144,28.448,144,48S423.904,144,336,144z"
			/>
	</g>
</g>
<g>
	<g>
		<path
      fill="white" stroke="white"
      d="M176,208C90.688,208,0,236.032,0,288v128c0,51.968,90.688,80,176,80s176-28.032,176-80V288
			C352,236.032,261.312,208,176,208z M320,416c0,19.552-56.096,48-144,48S32,435.552,32,416v-16.672
			C65.952,420.736,122.016,432,176,432s110.048-11.264,144-32.672V416z M320,352c0,19.552-56.096,48-144,48S32,371.552,32,352
			v-16.672C65.952,356.736,122.016,368,176,368s110.048-11.264,144-32.672V352z M176,336c-87.904,0-144-28.448-144-48
			s56.096-48,144-48s144,28.448,144,48S263.904,336,176,336z"/>
	</g>
</g>
<g>
</g>
<g>
</g>
<g>
</g>
<g>
</g>
<g>
</g>
<g>
</g>
<g>
</g>
<g>
</g>
<g>
</g>
<g>
</g>
<g>
</g>
<g>
</g>
<g>
</g>
<g>
</g>
<g>
</g>
</svg>
