<svg width="21" height="18" viewBox="0 0 21 18" fill="none" xmlns="http://www.w3.org/2000/svg">
<g clip-path="url(#clip0)">
<path d="M20.3756 6.68691H0.187317L6.59762 0.189252C6.84738 -0.0630841 7.24282 -0.0630841 7.47176 0.189252C7.72151 0.441589 7.72151 0.841121 7.47176 1.07243L3.18434 5.42523H20.3548C20.7086 5.42523 20.9792 5.6986 20.9792 6.05607C20.9792 6.41355 20.7086 6.68691 20.3756 6.68691Z" fill="white"/>
<path d="M13.9445 18C13.778 18 13.6323 17.9369 13.5074 17.8107C13.2577 17.5584 13.2577 17.1589 13.5074 16.9276L17.7948 12.5958H0.624381C0.270565 12.5958 0 12.3224 0 11.9649C0 11.6075 0.270565 11.3341 0.624381 11.3341H20.8127L14.3816 17.8318C14.2775 17.9579 14.111 18 13.9445 18Z" fill="white"/>
</g>
<defs>
<clipPath id="clip0">
<rect width="21" height="18" fill="white"/>
</clipPath>
</defs>
</svg>
